<mxfile host="app.diagrams.net" modified="2020-07-27T14:06:08.459Z" agent="5.0 (Windows NT 10.0; Win64; x64) AppleWebKit/537.36 (KHTML, like Gecko) Chrome/84.0.4147.89 Safari/537.36" etag="COwsOZ7GLWOPQiUOYivd" version="13.5.3" type="github">
  <diagram id="5Wx6Nn3Xxm2srcQ_XdLa" name="Page-1">
    <mxGraphModel dx="1233" dy="1116" grid="1" gridSize="10" guides="1" tooltips="1" connect="1" arrows="1" fold="1" page="1" pageScale="1" pageWidth="850" pageHeight="1100" math="0" shadow="0">
      <root>
        <mxCell id="0" />
        <mxCell id="1" parent="0" />
        <mxCell id="AvpI5X2fEeBMYtolFJMF-3" value="" style="edgeStyle=orthogonalEdgeStyle;rounded=0;orthogonalLoop=1;jettySize=auto;html=1;" edge="1" parent="1" source="AvpI5X2fEeBMYtolFJMF-1" target="AvpI5X2fEeBMYtolFJMF-2">
          <mxGeometry relative="1" as="geometry" />
        </mxCell>
        <mxCell id="AvpI5X2fEeBMYtolFJMF-1" value="This" style="rounded=0;whiteSpace=wrap;html=1;" vertex="1" parent="1">
          <mxGeometry x="110" y="170" width="120" height="60" as="geometry" />
        </mxCell>
        <mxCell id="AvpI5X2fEeBMYtolFJMF-5" value="" style="edgeStyle=orthogonalEdgeStyle;rounded=0;orthogonalLoop=1;jettySize=auto;html=1;" edge="1" parent="1" source="AvpI5X2fEeBMYtolFJMF-2" target="AvpI5X2fEeBMYtolFJMF-4">
          <mxGeometry relative="1" as="geometry" />
        </mxCell>
        <mxCell id="AvpI5X2fEeBMYtolFJMF-2" value="Is" style="rounded=0;whiteSpace=wrap;html=1;" vertex="1" parent="1">
          <mxGeometry x="280" y="170" width="120" height="60" as="geometry" />
        </mxCell>
        <mxCell id="AvpI5X2fEeBMYtolFJMF-7" value="" style="edgeStyle=orthogonalEdgeStyle;rounded=0;orthogonalLoop=1;jettySize=auto;html=1;" edge="1" parent="1" source="AvpI5X2fEeBMYtolFJMF-4" target="AvpI5X2fEeBMYtolFJMF-6">
          <mxGeometry relative="1" as="geometry" />
        </mxCell>
        <mxCell id="AvpI5X2fEeBMYtolFJMF-4" value="A" style="rounded=0;whiteSpace=wrap;html=1;" vertex="1" parent="1">
          <mxGeometry x="480" y="170" width="120" height="60" as="geometry" />
        </mxCell>
        <mxCell id="AvpI5X2fEeBMYtolFJMF-6" value="Sample" style="rounded=0;whiteSpace=wrap;html=1;" vertex="1" parent="1">
          <mxGeometry x="680" y="170" width="120" height="60" as="geometry" />
        </mxCell>
      </root>
    </mxGraphModel>
  </diagram>
</mxfile>
